<svg xmlns="http://www.w3.org/2000/svg" viewBox="0 0 1292.11 540.52"><path d="M244.98 31.64v137.8c0 12.68-10.28 22.97-22.97 22.97H22.97C10.29 192.41 0 182.13 0 169.44V31.64C0 18.96 10.28 8.68 22.97 8.68h199.05c12.68 0 22.97 10.28 22.97 22.97zm-22.97 134.93V34.51c0-1.58-1.29-2.87-2.87-2.87H25.84c-1.58 0-2.87 1.29-2.87 2.87v132.06c0 1.58 1.29 2.87 2.87 2.87h193.31c1.58 0 2.87-1.29 2.87-2.87zM80.39 69.92c0 10.57-8.57 19.14-19.14 19.14s-19.14-8.57-19.14-19.14 8.57-19.14 19.14-19.14 19.14 8.57 19.14 19.14zm-34.45 53.59 18.91-18.91a5.746 5.746 0 0 1 8.12 0l18.91 18.91 57.19-57.19a5.746 5.746 0 0 1 8.12 0l41.87 41.87v38.28H45.93V123.5z" fill="#f0f" opacity=".5"/><path d="M90.01 214.07v20c0 7.82-4.3 11.1-17.46 10.81v-4.89c10.81.49 11.79-.59 11.79-5.87v-15.6h-9.98v-4.45h15.65zM99.85 244.39v-30.27c13.89-1.91 20.69 1.71 20.69 9.44s-6.26 10.81-15.11 11.74v9.1h-5.57zm5.57-25.97v12.18c6.26.64 9.59-.93 9.59-5.97 0-4.65-3.18-6.94-9.59-6.21zM145.97 244.39h-18.78v-30.32h18.93v4.69h-13.3v8.31h11.39v4.11h-11.39v8.51h13.6l-.44 4.69zM151.79 230.06c0-8.85 4.65-15.99 19.76-16.43l.34 5.38c-12.42-.49-14.38 3.86-14.38 10.12 0 7.38 2.79 11.44 10.61 11.3-.05-3.08-.2-7.48-.24-11.2h5.18c0 6.21 0 10.86.05 14.77-14.48 3.18-21.32-3.08-21.32-13.94z"/><path d="M409.98 51.87v120.46c0 11.09-8.99 20.08-20.08 20.08h-174c-11.09 0-20.08-8.99-20.08-20.08V51.87c0-11.09 8.99-20.08 20.08-20.08h174c11.09 0 20.08 8.99 20.08 20.08zM389.9 169.82V54.38c0-1.39-1.12-2.51-2.51-2.51H218.41c-1.39 0-2.51 1.12-2.51 2.51v115.44c0 1.39 1.12 2.51 2.51 2.51h168.98c1.39 0 2.51-1.12 2.51-2.51zM266.09 85.33c0 9.24-7.49 16.73-16.73 16.73s-16.73-7.49-16.73-16.73 7.49-16.73 16.73-16.73 16.73 7.49 16.73 16.73zm-30.12 46.85 16.53-16.53a5.022 5.022 0 0 1 7.1 0l16.53 16.53 49.99-49.99a5.022 5.022 0 0 1 7.1 0l36.6 36.6v33.46H235.97v-20.08z" fill="#0ff" opacity=".5"/><path d="M266.81 244.39v-30.27c13.89-1.91 20.69 1.71 20.69 9.44s-6.26 10.81-15.11 11.74v9.1h-5.57zm5.57-25.97v12.18c6.26.64 9.59-.93 9.59-5.97 0-4.65-3.18-6.94-9.59-6.21zM298.06 224.14h-.24l.2 20.25h-5.18v-30.32h5.28l9.73 20h.2l-.24-20h5.18v30.32h-4.79l-10.12-20.25zM318.75 230.06c0-8.85 4.65-15.99 19.76-16.43l.34 5.38c-12.42-.49-14.38 3.86-14.38 10.12 0 7.38 2.79 11.44 10.61 11.3-.05-3.08-.2-7.48-.24-11.2h5.18c0 6.21 0 10.86.05 14.77-14.48 3.18-21.32-3.08-21.32-13.94z"/><path d="M570.05 78.58v97.57c0 8.98-7.28 16.26-16.26 16.26H412.85c-8.98 0-16.26-7.28-16.26-16.26V78.58c0-8.98 7.28-16.26 16.26-16.26h140.94c8.98 0 16.26 7.28 16.26 16.26zm-16.26 95.54V80.61c0-1.12-.91-2.03-2.03-2.03H414.89c-1.12 0-2.03.91-2.03 2.03v93.51c0 1.12.91 2.03 2.03 2.03h136.87c1.12 0 2.03-.91 2.03-2.03zm-100.28-68.44c0 7.48-6.07 13.55-13.55 13.55s-13.55-6.07-13.55-13.55 6.07-13.55 13.55-13.55 13.55 6.07 13.55 13.55zm-24.39 37.94 13.39-13.39a4.062 4.062 0 0 1 5.75 0l13.39 13.39 40.49-40.49a4.062 4.062 0 0 1 5.75 0l29.65 29.65v27.1H429.13v-16.26z" fill="#f0f" opacity=".5"/><path d="m442.82 229.86-3.77 14.52h-5.38c-.68-5.72-1.61-17.26-2.25-30.32h5.43c.1 3.08.93 21.42 1.08 22.94h.2c1.32-5.28 2.2-8.95 3.47-13.84h2.98c1.32 4.89 2.4 8.9 3.72 13.84h.15c.2-1.52.73-19.85.88-22.94h5.23c-.64 13.06-1.61 24.6-2.3 30.32h-5.48l-3.96-14.52zM479.89 244.39h-18.78v-30.32h18.93v4.69h-13.3v8.31h11.39v4.11h-11.39v8.51h13.6l-.44 4.69zM487.42 244.39v-30.32c11.93-1.32 19.51.2 19.51 7.09 0 3.47-1.96 5.82-4.89 7.19 3.77 1.08 5.87 3.28 5.87 7.09 0 8.02-8.75 10.47-20.49 8.95zm5.53-17.07c6.46.2 8.61-1.27 8.61-4.79s-3.18-4.89-8.61-4.25v9.05zm9.44 8.36c0-4.01-3.23-4.79-9.44-4.5v9c6.21.83 9.44-.34 9.44-4.5zM514.47 244.39v-30.27c13.89-1.91 20.69 1.71 20.69 9.44s-6.26 10.81-15.11 11.74v9.1h-5.57zm5.57-25.97v12.18c6.26.64 9.59-.93 9.59-5.97 0-4.65-3.18-6.94-9.59-6.21z"/><path d="M783.93 24.05v144.31c0 13.28-10.77 24.05-24.05 24.05H551.43c-13.28 0-24.05-10.77-24.05-24.05V24.05C527.38 10.77 538.15 0 551.43 0h208.45c13.28 0 24.05 10.77 24.05 24.05zm-24.05 141.3V27.06c0-1.66-1.35-3.01-3.01-3.01H554.44c-1.66 0-3.01 1.35-3.01 3.01v138.3c0 1.66 1.35 3.01 3.01 3.01h202.43c1.66 0 3.01-1.35 3.01-3.01zM611.56 64.13c0 11.07-8.97 20.04-20.04 20.04s-20.04-8.97-20.04-20.04 8.97-20.04 20.04-20.04 20.04 8.97 20.04 20.04zm-36.08 56.12 19.8-19.8c2.35-2.35 6.16-2.35 8.5 0l19.8 19.8 59.89-59.89a6.005 6.005 0 0 1 8.5 0l43.85 43.85v40.09H575.47v-24.05z" fill="#0ff" opacity=".5"/><path d="M625.77 230.06c0-8.85 4.65-15.99 19.76-16.43l.34 5.38c-12.42-.49-14.38 3.86-14.38 10.12 0 7.38 2.79 11.44 10.61 11.3-.05-3.08-.2-7.48-.24-11.2h5.18c0 6.21 0 10.86.05 14.77-14.48 3.18-21.32-3.08-21.32-13.94zM666.56 240.03h7.24l-.39 4.35h-19.46v-4.35h6.99v-21.62h-6.99v-4.35h19.61v4.35h-6.99v21.62zM687.79 231.92v12.47h-5.62v-30.32h19.17v4.69h-13.55v8.8h11.54v4.35h-11.54z"/><path d="M958.93 41.76v129.13c0 11.89-9.64 21.52-21.52 21.52H750.88c-11.89 0-21.52-9.64-21.52-21.52V41.76c0-11.89 9.64-21.52 21.52-21.52h186.53c11.89 0 21.52 9.64 21.52 21.52zM937.41 168.2V44.45c0-1.48-1.21-2.69-2.69-2.69H753.58a2.69 2.69 0 0 0-2.69 2.69V168.2c0 1.48 1.21 2.69 2.69 2.69h181.14a2.69 2.69 0 0 0 2.69-2.69zM804.69 77.63c0 9.91-8.03 17.94-17.94 17.94s-17.94-8.03-17.94-17.94 8.03-17.94 17.94-17.94 17.94 8.03 17.94 17.94zm-32.28 50.22 17.72-17.72c2.1-2.1 5.51-2.1 7.61 0l17.72 17.72 53.59-53.59c2.1-2.1 5.51-2.1 7.61 0l39.24 39.24v35.87H772.42v-21.52z" fill="#f0f" opacity=".5"/><path d="M806.67 244.39H801v-25.63h-8.9l.39-4.69h22.84v4.69h-8.66v25.63zM833.52 240.03h7.24l-.39 4.35h-19.46v-4.35h6.99v-21.62h-6.99v-4.35h19.61v4.35h-6.99v21.62zM854.75 231.92v12.47h-5.62v-30.32h19.17v4.69h-13.55v8.8h11.54v4.35h-11.54zM881.65 231.92v12.47h-5.62v-30.32h19.17v4.69h-13.55v8.8h11.54v4.35h-11.54z"/><path d="M1136.3 55.55v117.31c0 10.8-8.75 19.55-19.55 19.55H947.3c-10.8 0-19.55-8.75-19.55-19.55V55.55c0-10.8 8.75-19.55 19.55-19.55h169.45c10.8 0 19.55 8.75 19.55 19.55zm-19.55 114.87V58c0-1.35-1.1-2.44-2.44-2.44H949.75c-1.35 0-2.44 1.1-2.44 2.44v112.42c0 1.35 1.1 2.44 2.44 2.44h164.56c1.35 0 2.44-1.1 2.44-2.44zM996.18 88.14c0 9-7.3 16.29-16.29 16.29s-16.29-7.29-16.29-16.29 7.3-16.29 16.29-16.29 16.29 7.29 16.29 16.29zm-29.33 45.62 16.09-16.1c1.91-1.91 5-1.91 6.91 0l16.1 16.1 48.68-48.68c1.91-1.91 5-1.91 6.91 0l35.65 35.65v32.59H966.84v-19.55z" fill="#0ff" opacity=".5"/><path d="M988.65 235.97h-9c-.68 2.79-1.32 5.62-2 8.41h-5.58c2.59-10.07 5.23-20.25 8.26-30.37h7.78c2.98 10.12 5.67 20.1 8.27 30.17l-5.67.39c-.68-2.84-1.37-5.72-2.05-8.61zm-8.02-4.11h7.04c-1.08-4.45-2.2-8.9-3.33-13.25h-.39c-1.12 4.4-2.25 8.8-3.33 13.25zM1007.19 244.43c-2.98-10.17-5.67-20.1-8.12-30.17l5.72-.39c1.91 8.36 3.96 17.12 6.21 25.48h.44c2.2-8.36 4.21-16.92 6.11-25.28h5.57c-2.44 10.07-5.09 20.2-8.07 30.37h-7.87zM1040.84 240.03h7.24l-.39 4.35h-19.46v-4.35h6.99v-21.62h-6.99v-4.35h19.61v4.35h-6.99v21.62zM1062.06 231.92v12.47h-5.62v-30.32h19.17v4.69h-13.55v8.8h11.54v4.35h-11.54z"/><path d="M1292.11 71.89V175.2c0 9.51-7.71 17.22-17.22 17.22h-149.23c-9.51 0-17.22-7.71-17.22-17.22V71.89c0-9.51 7.71-17.22 17.22-17.22h149.23c9.51 0 17.22 7.71 17.22 17.22zm-17.22 101.16V74.04c0-1.19-.96-2.15-2.15-2.15h-144.92c-1.19 0-2.15.96-2.15 2.15v99.01c0 1.19.96 2.15 2.15 2.15h144.92c1.19 0 2.15-.96 2.15-2.15zm-106.18-72.46c0 7.92-6.42 14.35-14.35 14.35s-14.35-6.42-14.35-14.35 6.42-14.35 14.35-14.35 14.35 6.42 14.35 14.35zm-25.83 40.18 14.17-14.17a4.31 4.31 0 0 1 6.09 0l14.17 14.17 42.87-42.87a4.31 4.31 0 0 1 6.09 0l31.39 31.39v28.7h-114.79v-17.22z" fill="#f0f" opacity=".5"/><path d="M1182.56 236.17c0-4.94-14.13-6.7-14.13-13.69 0-4.55 5.18-9.34 17.8-8.66l.29 5.04c-9.83-.68-12.27.64-12.27 2.84 0 4.55 14.13 6.55 14.13 13.79 0 4.79-5.23 9.83-19.86 9.24v-5.04c10.32.78 14.04-.98 14.04-3.52zM1201.05 244.43c-2.98-10.17-5.67-20.1-8.12-30.17l5.72-.39c1.91 8.36 3.96 17.12 6.21 25.48h.44c2.2-8.36 4.21-16.92 6.11-25.28h5.57c-2.45 10.07-5.09 20.2-8.07 30.37h-7.88zM1220.81 230.06c0-8.85 4.65-15.99 19.76-16.43l.34 5.38c-12.42-.49-14.38 3.86-14.38 10.12 0 7.38 2.79 11.44 10.61 11.3-.05-3.08-.2-7.48-.24-11.2h5.18c0 6.21 0 10.86.05 14.77-14.48 3.18-21.32-3.08-21.32-13.94z"/><path d="M370.27 403.7v75.79c0 6.98-5.66 12.63-12.63 12.63H248.17c-6.98 0-12.63-5.66-12.63-12.63V403.7c0-6.98 5.66-12.63 12.63-12.63h109.47c6.98 0 12.63 5.66 12.63 12.63zm-12.63 74.21v-72.63c0-.87-.71-1.58-1.58-1.58H249.75c-.87 0-1.58.71-1.58 1.58v72.63c0 .87.71 1.58 1.58 1.58h106.31c.87 0 1.58-.71 1.58-1.58zm-77.89-53.16c0 5.81-4.71 10.53-10.53 10.53s-10.53-4.71-10.53-10.53 4.71-10.53 10.53-10.53 10.53 4.71 10.53 10.53zm-18.95 29.47 10.4-10.4a3.169 3.169 0 0 1 4.47 0l10.4 10.4 31.45-31.45a3.169 3.169 0 0 1 4.47 0l23.03 23.03v21.05h-84.21v-12.63z" fill="#f0f"/><path d="M270.43 509.7v20c0 7.82-4.3 11.1-17.46 10.81v-4.89c10.81.49 11.79-.59 11.79-5.87v-15.6h-9.98v-4.45h15.65zM280.26 540.02v-30.27c13.89-1.91 20.69 1.71 20.69 9.44s-6.26 10.81-15.11 11.74v9.1h-5.57zm5.57-25.97v12.18c6.26.64 9.59-.93 9.59-5.97 0-4.65-3.18-6.94-9.59-6.21zM326.38 540.02H307.6V509.7h18.93v4.69h-13.3v8.31h11.39v4.11h-11.39v8.51h13.6l-.44 4.69zM332.2 525.69c0-8.85 4.65-15.99 19.76-16.43l.34 5.38c-12.42-.49-14.38 3.86-14.38 10.12 0 7.38 2.79 11.44 10.61 11.3-.05-3.08-.2-7.48-.24-11.2h5.18c0 6.21 0 10.86.05 14.77-14.48 3.18-21.32-3.08-21.32-13.94z"/><path d="M550.68 403.7v75.79c0 6.98-5.66 12.63-12.63 12.63H428.58c-6.98 0-12.63-5.66-12.63-12.63V403.7c0-6.98 5.66-12.63 12.63-12.63h109.47c6.98 0 12.63 5.66 12.63 12.63zm-12.63 74.21v-72.63c0-.87-.71-1.58-1.58-1.58H430.16c-.87 0-1.58.71-1.58 1.58v72.63c0 .87.71 1.58 1.58 1.58h106.31c.87 0 1.58-.71 1.58-1.58zm-77.89-53.16c0 5.81-4.71 10.53-10.53 10.53s-10.53-4.71-10.53-10.53 4.71-10.53 10.53-10.53 10.53 4.71 10.53 10.53zm-18.95 29.47 10.4-10.4a3.169 3.169 0 0 1 4.47 0l10.4 10.4 31.45-31.45a3.169 3.169 0 0 1 4.47 0l23.03 23.03v21.05h-84.21v-12.63z" fill="#0ff"/><path d="M447.22 540.02v-30.27c13.89-1.91 20.69 1.71 20.69 9.44s-6.26 10.81-15.11 11.74v9.1h-5.57zm5.57-25.97v12.18c6.26.64 9.59-.93 9.59-5.97 0-4.65-3.18-6.94-9.59-6.21zM478.47 519.77h-.24l.2 20.25h-5.18V509.7h5.28l9.73 20h.2l-.24-20h5.18v30.32h-4.79l-10.12-20.25zM499.16 525.69c0-8.85 4.65-15.99 19.76-16.43l.34 5.38c-12.42-.49-14.38 3.86-14.38 10.12 0 7.38 2.79 11.44 10.61 11.3-.05-3.08-.2-7.48-.24-11.2h5.18c0 6.21 0 10.86.05 14.77-14.48 3.18-21.32-3.08-21.32-13.94z"/><path d="M731.1 403.7v75.79c0 6.98-5.66 12.63-12.63 12.63H609c-6.98 0-12.63-5.66-12.63-12.63V403.7c0-6.98 5.66-12.63 12.63-12.63h109.47c6.98 0 12.63 5.66 12.63 12.63zm-12.63 74.21v-72.63c0-.87-.71-1.58-1.58-1.58H610.58c-.87 0-1.58.71-1.58 1.58v72.63c0 .87.71 1.58 1.58 1.58h106.31c.87 0 1.58-.71 1.58-1.58zm-77.89-53.16c0 5.81-4.71 10.53-10.53 10.53s-10.53-4.71-10.53-10.53 4.71-10.53 10.53-10.53 10.53 4.71 10.53 10.53zm-18.95 29.47 10.4-10.4a3.169 3.169 0 0 1 4.47 0l10.4 10.4 31.45-31.45a3.169 3.169 0 0 1 4.47 0l23.03 23.03v21.05h-84.21v-12.63z" fill="#f0f"/><path d="m623.23 525.49-3.77 14.52h-5.38c-.68-5.72-1.61-17.26-2.25-30.32h5.43c.1 3.08.93 21.42 1.08 22.94h.2c1.32-5.28 2.2-8.95 3.47-13.84h2.98c1.32 4.89 2.4 8.9 3.72 13.84h.15c.2-1.52.73-19.85.88-22.94h5.23c-.64 13.06-1.61 24.6-2.3 30.32h-5.48l-3.96-14.52zM660.3 540.02h-18.78V509.7h18.93v4.69h-13.3v8.31h11.39v4.11h-11.39v8.51h13.6l-.44 4.69zM667.84 540.02V509.7c11.93-1.32 19.51.2 19.51 7.09 0 3.47-1.96 5.82-4.89 7.19 3.77 1.08 5.87 3.28 5.87 7.09 0 8.02-8.75 10.47-20.49 8.95zm5.53-17.07c6.46.2 8.61-1.27 8.61-4.79s-3.18-4.89-8.61-4.25v9.05zm9.44 8.36c0-4.01-3.23-4.79-9.44-4.5v9c6.21.83 9.44-.34 9.44-4.5zM694.88 540.02v-30.27c13.89-1.91 20.69 1.71 20.69 9.44s-6.26 10.81-15.11 11.74v9.1h-5.58zm5.58-25.97v12.18c6.26.64 9.58-.93 9.58-5.97 0-4.65-3.18-6.94-9.58-6.21z"/><path d="M911.51 403.7v75.79c0 6.98-5.66 12.63-12.63 12.63H789.41c-6.98 0-12.63-5.66-12.63-12.63V403.7c0-6.98 5.66-12.63 12.63-12.63h109.47c6.98 0 12.63 5.66 12.63 12.63zm-12.63 74.21v-72.63c0-.87-.71-1.58-1.58-1.58H790.99c-.87 0-1.58.71-1.58 1.58v72.63c0 .87.71 1.58 1.58 1.58H897.3c.87 0 1.58-.71 1.58-1.58zm-77.89-53.16c0 5.81-4.71 10.53-10.53 10.53s-10.53-4.71-10.53-10.53 4.71-10.53 10.53-10.53 10.53 4.71 10.53 10.53zm-18.95 29.47 10.4-10.4a3.169 3.169 0 0 1 4.47 0l10.4 10.4 31.45-31.45a3.169 3.169 0 0 1 4.47 0l23.03 23.03v21.05h-84.21v-12.63z" fill="#0ff"/><path d="M808.24 531.61h-9c-.68 2.79-1.32 5.62-2 8.41h-5.58c2.59-10.07 5.23-20.25 8.26-30.37h7.78c2.98 10.12 5.67 20.1 8.27 30.17l-5.67.39c-.68-2.84-1.37-5.72-2.05-8.61zm-8.02-4.11h7.04c-1.08-4.45-2.2-8.9-3.33-13.25h-.39c-1.12 4.4-2.25 8.8-3.33 13.25zM826.78 540.07c-2.98-10.17-5.67-20.1-8.12-30.17l5.72-.39c1.91 8.36 3.96 17.12 6.21 25.48h.44c2.2-8.36 4.21-16.92 6.11-25.28h5.57c-2.44 10.07-5.09 20.2-8.07 30.37h-7.87zM860.43 535.66h7.24l-.39 4.35h-19.46v-4.35h6.99v-21.62h-6.99v-4.35h19.61v4.35h-6.99v21.62zM881.65 527.55v12.47h-5.62V509.7h19.17v4.69h-13.55v8.8h11.54v4.35h-11.54z"/><path d="M1091.92 403.7v75.79c0 6.98-5.66 12.63-12.63 12.63H969.82c-6.98 0-12.63-5.66-12.63-12.63V403.7c0-6.98 5.66-12.63 12.63-12.63h109.47c6.98 0 12.63 5.66 12.63 12.63zm-12.63 74.21v-72.63c0-.87-.71-1.58-1.58-1.58H971.4c-.87 0-1.58.71-1.58 1.58v72.63c0 .87.71 1.58 1.58 1.58h106.31c.87 0 1.58-.71 1.58-1.58zm-77.89-53.16c0 5.81-4.71 10.53-10.53 10.53s-10.53-4.71-10.53-10.53 4.71-10.53 10.53-10.53 10.53 4.71 10.53 10.53zm-18.95 29.47 10.4-10.4a3.169 3.169 0 0 1 4.47 0l10.4 10.4 31.45-31.45a3.169 3.169 0 0 1 4.47 0l23.03 23.03v21.05h-84.21v-12.63z" fill="#0ff"/><path d="M1002.15 531.8c0-4.94-14.13-6.7-14.13-13.69 0-4.55 5.18-9.34 17.8-8.66l.29 5.04c-9.83-.68-12.28.64-12.28 2.84 0 4.55 14.13 6.55 14.13 13.79 0 4.79-5.23 9.83-19.86 9.24v-5.04c10.32.78 14.04-.98 14.04-3.52zM1020.64 540.07c-2.98-10.17-5.67-20.1-8.12-30.17l5.72-.39c1.91 8.36 3.96 17.12 6.21 25.48h.44c2.2-8.36 4.21-16.92 6.11-25.28h5.57c-2.44 10.07-5.09 20.2-8.07 30.37h-7.87zM1040.4 525.69c0-8.85 4.65-15.99 19.76-16.43l.34 5.38c-12.42-.49-14.38 3.86-14.38 10.12 0 7.38 2.79 11.44 10.61 11.3-.05-3.08-.2-7.48-.24-11.2h5.18c0 6.21 0 10.86.05 14.77-14.48 3.18-21.32-3.08-21.32-13.94zM150.1 268.38c10.94 10.54 25.92 14.57 40.49 17.07 17.8 3.05 35.81 4.98 53.82 6.26 36.46 2.59 73.03 2.33 109.56 2.14 18.22-.1 36.44-.18 54.66.11 16.6.26 33.21.73 49.71 2.69 28.07 3.33 55.63 10.76 81.49 22.19s51.41 27.38 74.94 44.47c3.24 2.35 6.46 4.74 9.66 7.14s6.08-2.89 3.03-5.18c-23.63-17.76-48.34-34.3-75.01-47.18-25.21-12.18-51.95-20.84-79.59-25.39-33.26-5.47-67.21-5.01-100.81-4.93-36.4.09-72.83.72-109.21-.99-18.12-.85-36.23-2.29-54.22-4.66-15.3-2.02-32.09-3.78-45.72-11.6-3.12-1.79-5.96-3.9-8.55-6.4-2.78-2.68-7.03 1.56-4.24 4.24zM654.11 272.63c10.86 10.68 24.53 17.65 38.87 22.44s29.6 7.58 44.58 10.51 29.52 6.31 43.85 11.14c14.07 4.75 27.74 10.77 40.37 18.64 12.38 7.72 23.59 17.26 32.64 28.76 1.06 1.34 2.08 2.74 3.07 4.15.93 1.32 2.62 1.94 4.1 1.08 1.31-.76 2.02-2.77 1.08-4.1-8.72-12.34-19.72-22.75-32.14-31.31-12.46-8.58-26.21-15.18-40.37-20.46-14.2-5.29-28.89-9.19-43.73-12.22s-30.09-5.56-44.79-9.78-27.94-9.75-39.16-19.3a81.781 81.781 0 0 1-4.12-3.77c-2.76-2.71-7 1.53-4.24 4.24z"/><path d="M812.14 265.82c-33.13 10.78-67.46 17.45-102.04 21.46-34.79 4.03-69.82 5.53-104.81 6.42-35.24.9-70.5 1.15-105.72 2.63-17.56.74-35.11 1.78-52.61 3.36-17.06 1.54-34.44 3.04-51.08 7.29-7.99 2.04-16.05 4.76-23.29 8.76-4.91 2.71-9.08 6.79-12.74 10.97-8.6 9.8-15.65 21.29-20.62 33.33-.99 2.39-1.86 4.82-2.54 7.32-1.02 3.73 4.77 5.32 5.79 1.6 3.18-11.62 9.84-22.65 16.97-32.25 3.55-4.78 7.54-9.46 12.23-13.16 5.41-4.28 12.39-6.74 18.89-8.81 16.23-5.16 33.42-6.83 50.3-8.48 17.19-1.68 34.44-2.81 51.69-3.62 34.78-1.63 69.6-1.95 104.4-2.74 34.59-.79 69.22-2.04 103.65-5.58 33.98-3.5 67.81-9.21 100.62-18.83 4.2-1.23 8.37-2.53 12.53-3.88 3.66-1.19 2.09-6.99-1.6-5.79z"/><path d="M316.52 268.8c8.84 11.82 20.83 20.52 33.66 27.57 13.39 7.36 27.57 13.4 42.03 18.31 29.23 9.93 59.95 15.04 90.7 17.01s62.46.76 93.51-2.22c34.36-3.29 68.5-8.93 103.02-10.44 29.85-1.3 65.49-1.09 87.33 22.74 2.29 2.5 4.27 5.2 6.01 8.1 1.99 3.31 7.18.29 5.18-3.03-16.24-27.05-49.39-33.82-78.61-34.17-34.99-.42-69.72 4.86-104.39 8.83-31.36 3.59-62.91 5.81-94.5 4.97-30.77-.82-61.56-4.52-91.26-12.82-14.8-4.14-29.3-9.4-43.2-15.96s-26.58-13.5-37.17-23.84c-2.57-2.51-4.99-5.2-7.15-8.08-2.29-3.06-7.5-.07-5.18 3.03zM994.04 270.18c-18.77 4.05-36.2 12.12-50.99 24.4-13.32 11.07-23.95 24.9-34.06 38.84-6.04 8.33-11.93 16.76-18.1 24.98-.97 1.3-.21 3.35 1.08 4.1 1.53.9 3.13.22 4.1-1.08 10.51-14.01 20.25-28.86 31.22-42.16 5.32-6.44 11.01-12.6 17.28-18.13s13.07-10.32 20.66-14.37c9.54-5.08 19.76-8.53 30.4-10.83 1.58-.34 2.51-2.19 2.1-3.69-.45-1.64-2.1-2.44-3.69-2.1zM1166.34 267.73c-20.28 3.92-39.93 11.01-58.14 20.73-18.15 9.69-34.92 22.06-49.51 36.56-8.27 8.22-15.81 17.16-22.58 26.65-.94 1.32-.23 3.34 1.08 4.1 1.51.88 3.16.25 4.1-1.08 11.56-16.22 25.67-30.73 41.51-42.8 15.95-12.16 33.67-22.1 52.45-29.15 10.62-3.99 21.56-7.08 32.69-9.24 1.59-.31 2.5-2.22 2.1-3.69-.46-1.66-2.09-2.4-3.69-2.1zM122.84 273.36c-4.49 17.27 2.59 35.15 12.63 49.09 9.43 13.1 21.66 24.12 35.67 32.15 7.9 4.53 16.38 8.1 25.14 10.6 3.72 1.06 5.31-4.73 1.6-5.79-14.46-4.11-28.04-11.33-39.53-21.02s-22.26-22.55-27.61-37.07c-3.11-8.44-4.39-17.56-2.1-26.36.97-3.74-4.81-5.34-5.79-1.6zM294.9 272.09c.12 22.19 16.35 39.78 33.12 52.29 18.89 14.08 40.56 24.77 62.93 32.06 12.73 4.15 25.83 7.14 39.1 8.95 1.6.22 3.22-.39 3.69-2.1.38-1.4-.48-3.47-2.1-3.69-22.81-3.1-45.16-9.72-65.92-19.68-10.5-5.03-20.6-10.89-30.18-17.51-8.45-5.84-16.41-12.56-22.9-20.58-6.9-8.53-11.69-18.79-11.75-29.75-.02-3.86-6.02-3.87-6 0z"/><path d="M499.71 271.75c14.51 4.23 29.01 8.48 43.41 13.07s28.66 9.52 42.69 15.12c13.83 5.52 27.39 11.75 40.45 18.91s25.07 14.69 36.27 23.84c10.47 8.56 19.99 18.55 26.18 30.68.73 1.43 1.43 2.89 2.05 4.38s1.99 2.56 3.69 2.1c1.41-.39 2.72-2.19 2.1-3.69-5.49-13.17-14.53-24.33-25.14-33.76s-23.46-18.02-36.2-25.38c-13.28-7.67-27.14-14.28-41.28-20.18s-28.55-11.06-43.1-15.81-29.29-9.13-44.01-13.43c-1.83-.54-3.67-1.07-5.5-1.61-3.71-1.08-5.3 4.7-1.6 5.79zM185.35 370.88c6.6-.91 13.28-1.23 19.94-1.09 2 .04 3.34-1.95 2.89-3.8-.9-3.68-1.79-7.36-2.69-11.04-.38-1.57-2.16-2.52-3.69-2.1-1.6.44-2.48 2.11-2.1 3.69.9 3.68 1.79 7.36 2.69 11.04l2.89-3.8c-7.21-.15-14.39.33-21.53 1.31-1.61.22-2.48 2.28-2.1 3.69.48 1.73 2.08 2.32 3.69 2.1zM330 354.84c1.39 6.81 2.78 13.63 4.16 20.44.36 1.78 2.89 2.89 4.41 1.79 5.49-3.98 10.98-7.96 16.47-11.93 1.31-.95 1.95-2.61 1.08-4.1-.76-1.29-2.79-2.03-4.1-1.08-5.49 3.98-10.98 7.96-16.47 11.93l4.41 1.79c-1.39-6.81-2.78-13.63-4.16-20.44-.32-1.59-2.2-2.5-3.69-2.1-1.65.45-2.42 2.1-2.1 3.69zM424.16 353.05c3.46 5.24 7.8 9.7 12.91 13.35l1.51-5.59c-8.5.83-16.88 2.5-25.01 5.09-3.67 1.17-2.1 6.96 1.6 5.79 7.62-2.43 15.46-4.1 23.42-4.88 3.02-.3 4.01-3.81 1.51-5.59-4.24-3.02-7.9-6.86-10.76-11.19-.89-1.35-2.65-1.93-4.1-1.08-1.34.78-1.97 2.75-1.08 4.1zM603.91 369.88c8.34.89 16.58 3.2 24.17 6.76 2.11.99 4.37-.2 4.51-2.59.31-5.07.62-10.15.94-15.22.1-1.62-1.45-3-3-3-1.71 0-2.9 1.38-3 3-.31 5.07-.62 10.15-.94 15.22l4.51-2.59a85.113 85.113 0 0 0-27.2-7.58c-1.61-.17-3 1.5-3 3 0 1.77 1.38 2.83 3 3z"/><path d="M672.3 375.95c2.02.06 3.31.26 5.23.65 2.18.45 4.34 1.02 6.47 1.67 3.97 1.21 7.87 2.65 11.71 4.25 1.47.61 3.34-.67 3.69-2.1.9-3.65.22-7.69-.15-11.36-.21-2.04-.43-4.08-.54-6.12-.05-.92-.08-1.83-.06-2.75.01-.37.08-.75.07-1.11s-.15.63-.01.11c.05-.17.07-.35.11-.52.93-3.75-4.86-5.35-5.79-1.6s-.22 7.69.15 11.36c.21 2.04.43 4.08.54 6.12.05.92.08 1.83.06 2.75-.01.37-.08.75-.07 1.11s.15-.63.01-.11c-.05.17-.07.35-.11.52l3.69-2.1c-3.95-1.64-7.98-3.13-12.08-4.36s-8.53-2.3-12.91-2.43c-3.86-.11-3.86 5.89 0 6zM759.05 350.15a74.438 74.438 0 0 1 18.08 10.5c2.12 1.67 4.84.58 5.12-2.12.67-6.34 2.14-12.57 4.25-18.58.54-1.53-.61-3.28-2.1-3.69-1.65-.45-3.15.56-3.69 2.1-2.29 6.54-3.74 13.29-4.46 20.18l5.12-2.12a84.127 84.127 0 0 0-20.73-12.05c-1.5-.61-3.3.66-3.69 2.1-.47 1.71.59 3.08 2.1 3.69zM838.43 364.56c6.74 1.89 13.14 5.06 18.63 9.42 1.69 1.35 4.39 1.05 5.01-1.32l5.4-20.46c.99-3.74-4.8-5.33-5.79-1.6l-5.4 20.46 5.01-1.32c-6.33-5.03-13.48-8.78-21.28-10.96-3.72-1.04-5.31 4.74-1.6 5.79zM884.59 346.76c-.23 6.78 2.05 13.07 1.83 19.68-.06 1.84 1.98 3.55 3.8 2.89 5.09-1.83 10.03-2.69 15.36-2.66 1.57 0 3.07-1.39 3-3s-1.32-2.99-3-3c-5.76-.04-11.53.92-16.95 2.87l3.8 2.89c.23-6.78-2.05-13.07-1.83-19.68.05-1.57-1.42-3.07-3-3-1.67.07-2.94 1.32-3 3zM1032.9 334.7c-3.53 8.21-5.3 17.02-4.97 25.97.07 1.9 1.87 3.47 3.8 2.89 9.27-2.75 18.54-5.5 27.82-8.25 3.69-1.1 2.12-6.89-1.6-5.79-9.27 2.75-18.54 5.5-27.82 8.25l3.8 2.89c-.29-7.83 1.05-15.72 4.15-22.94.64-1.49.44-3.22-1.08-4.1-1.26-.74-3.46-.42-4.1 1.08z"/></svg>